# xmcd
#
# Track frame offsets: 
#        150
#        20075
#        37148
#        62577
#        84273
#        101579
#        116000
#        131615
#        157039
#        173357
#        184980
#        204440
#        246797
#        279845
#
# Disc length: 4187 seconds
#
# Revision: 0
# Processed by: cddbd v1.5.1PL0 Copyright (c) Steve Scherf et al.
# Submitted via: ExactAudioCopy v0.95a5
#
DISCID=ba10590e
DTITLE=G. Love And Special Sauce - Yeah, It's That Easy
DYEAR=1997
DGENRE=Blues
TTITLE0=Stepping Stones
TTITLE1=I-76
TTITLE2=Lay Down The Law
TTITLE3=Slipped Away (The Ballad Of Lauretha Vaird)
TTITLE4=You Shall See
TTITLE5=Take You There
TTITLE6=Willow Tree
TTITLE7=Yeah, It's That Easy
TTITLE8=Recipe
TTITLE9=200 Years
TTITLE10=Making Amends
TTITLE11=Pull The Wool
TTITLE12=When We Meet Again
TTITLE13=data
EXTD=
EXTT0=
EXTT1=
EXTT2=
EXTT3=
EXTT4=
EXTT5=
EXTT6=
EXTT7=
EXTT8=
EXTT9=
EXTT10=
EXTT11=
EXTT12=
EXTT13=
PLAYORDER=
